<?xml version="1.0"?>
<svg xmlns="http://www.w3.org/2000/svg" xmlns:xlink="http://www.w3.org/1999/xlink" xmlns:svgjs="http://svgjs.com/svgjs" version="1.1" width="512" height="512" x="0" y="0" viewBox="0 0 61 60" style="enable-background:new 0 0 512 512" xml:space="preserve" class=""><g><!-- Generator: Sketch 51.3 (57544) - http://www.bohemiancoding.com/sketch --><title xmlns="http://www.w3.org/2000/svg">006 - Family Tree</title><desc xmlns="http://www.w3.org/2000/svg">Created with Sketch.</desc><defs xmlns="http://www.w3.org/2000/svg"/><g xmlns="http://www.w3.org/2000/svg" id="Page-1" stroke="none" stroke-width="1" fill="none" fill-rule="evenodd"><g id="006---Family-Tree" transform="translate(0.000000, -1.000000)" fill="#000000" fill-rule="nonzero"><path d="M35.87,32.2114 C38.5585,30.4854 41.5907,28.9199 44.8017,27.2627 C45.4301,26.9383 46.0728,26.6047 46.7163,26.27 C50.2194127,28.8138509 55.0364111,28.5072635 58.1887462,25.5398135 C61.3410813,22.5723634 61.9378972,17.7826578 59.610158,14.1323693 C57.2824188,10.4820807 52.687948,9.00278781 48.6676966,10.6091984 C44.6474452,12.215609 42.3375439,16.4537484 43.1663,20.703 C39.528,23.32 36.3557,25 35,25 C34.9205846,25.006708 34.8440828,24.9684571 34.8018,24.9009 C34.1934,24.1609 34.2045,21.4183 34.8013,18.1462 C38.6268222,16.3636224 40.6998351,12.1621732 39.7869343,8.04163744 C38.8740335,3.92110168 35.2204505,0.988374413 31,0.988374413 C26.7795495,0.988374413 23.1259665,3.92110168 22.2130657,8.04163744 C21.3001649,12.1621732 23.3731778,16.3636224 27.1987,18.1462 C27.7955,21.4183 27.8066,24.1606 27.1987,24.9009 C27.1563324,24.9686265 27.079588,25.0069021 27,25 C25.6443,25 22.472,23.32 18.8334,20.703 C19.6691009,16.4416591 17.3552927,12.1884846 13.3236218,10.5750869 C9.2919509,8.9616892 4.68274818,10.444407 2.34791309,14.1058231 C0.0130779916,17.7672391 0.613002876,22.5717466 3.77649004,25.5466031 C6.93997721,28.5214596 11.7722557,28.8252471 15.2834,26.27 C15.9269,26.6047 16.5696,26.9383 17.198,27.2627 C20.409,28.9199 23.4412,30.4854 26.1297,32.2114 C26.6063844,32.4908653 27.0344954,32.8459246 27.3973,33.2627 C27.8057978,33.7396424 27.8586987,34.4261001 27.5281,34.96 C27.2441943,35.3609924 26.7977042,35.6161505 26.3081,35.6572 C24.1962,35.9133 21.733,35.0555 19.5712,34.1537 C17.2616111,30.5469776 12.7294178,29.068738 8.73744111,30.6201149 C4.74546447,32.1714918 2.40082604,36.3222313 3.13281534,40.5420464 C3.86480464,44.7618615 7.47041419,47.8804426 11.7516676,47.9967054 C16.032921,48.1129683 19.8024696,45.1946689 20.7624,41.0208 C26.77,41.2344 26.9944,43.9039 27,44 L27,51.9946 C27.0444481,52.8035388 26.7428685,53.5932263 26.1705149,54.1666102 C25.5981613,54.739994 24.8090174,55.0429933 24,55 C21.1608813,55.0469101 18.7095396,57.000305 18.03,59.7573 C17.9454487,60.0934988 18.0412179,60.4494979 18.2830354,60.6978984 C18.524853,60.9462989 18.8781521,61.0515931 19.2165,60.9761 C22.5349,60.2393 28.5173,59.5479 30.445,60.832 L30.4465,60.8327 C30.4527,60.8369 30.46,60.8381 30.4665,60.842 C30.559949,60.9002394 30.6625053,60.9423909 30.7699,60.9667 C30.8015707,60.9730148 30.8335467,60.9776877 30.8657,60.9807 C30.9096586,60.990069 30.9541893,60.9965164 30.999,61 C31.0485059,60.99772 31.0977745,60.9917703 31.1464,60.9822 C31.1664,60.9793 31.1848,60.9792 31.2042,60.9752 C31.317693,60.9506943 31.4260032,60.9064563 31.5242,60.8445 C31.5342,60.8385 31.5452,60.8384 31.5542,60.832 C33.48,59.5483 39.4642,60.2402 42.7827,60.9761 C42.8523764,60.9913496 42.9234747,60.99916 42.9948,60.9994 L42.999,61 L43.001,61 L43.0059,60.9991 C43.0855484,60.999105 43.1649004,60.9894001 43.2422,60.9702 C43.2565,60.9667 43.2664,60.9562 43.2804,60.952 C43.3712603,60.9239731 43.4575878,60.8829482 43.5367,60.8302 C43.5602,60.8151 43.588,60.8068 43.6099,60.7902 C43.7054381,60.7164601 43.7867624,60.6259529 43.8499,60.5231 C43.8664,60.4963 43.8717,60.4648 43.8856,60.4366 C43.9246184,60.3674273 43.9550436,60.2937487 43.9762,60.2172 C43.9785,60.2063 43.9748,60.1961 43.9768,60.1853 C43.9833742,60.052741 43.9813365,59.919895 43.9707,59.7876 C43.9685,59.7776 43.9719,59.7676 43.9693,59.7576 C43.289974,57.0007144 40.8389561,55.0472253 38,55 C37.1918595,55.0432745 36.403395,54.7411256 35.8311347,54.1688653 C35.2588744,53.596605 34.9567255,52.8081405 35,52 L35,44.0234 C35.0056,43.9048 35.23,41.2344 41.2371,41.0208 C42.1962326,45.2012878 45.9702876,48.1254631 50.2578415,48.0101601 C54.5453955,47.8948571 58.1568325,44.7720675 58.8898939,40.5460724 C59.6229552,36.3200773 57.2742471,32.1634125 53.2760147,30.6108173 C49.2777823,29.0582222 44.739367,30.5404766 42.4283,34.1537 C40.2656,35.0554 37.7994,35.9128 35.6865,35.6567 C35.1980074,35.6145507 34.7530563,35.3588447 34.4707,34.958 C34.1405812,34.4229103 34.1951204,33.7356275 34.6055,33.2593 C34.9675417,32.8438999 35.3945916,32.4900007 35.87,32.2114 Z M47.3361,24.2051 C47.8113294,22.9649166 48.7630272,21.9664423 49.979,21.4323 C51.219953,22.1892225 52.779847,22.1892225 54.0208,21.4323 C55.2367728,21.9664423 56.1884706,22.9649166 56.6637,24.2051 C54.0150156,26.5982863 49.9847844,26.5982863 47.3361,24.2051 Z M52,20 C50.8954305,20 50,19.1045695 50,18 C50,16.8954305 50.8954305,16 52,16 C53.1045695,16 54,16.8954305 54,18 C53.9987325,19.1040441 53.1040441,19.9987325 52,20 Z M52,12 C54.5019641,11.9954537 56.815407,13.3290044 58.065428,15.4963282 C59.315449,17.663652 59.3112428,20.333925 58.0544,22.4973 C57.4381075,21.4301935 56.5489061,20.5463419 55.4781,19.9365 C55.8157735,19.3466511 55.9955346,18.6796508 56,18 C56,15.790861 54.209139,14 52,14 C49.790861,14 48,15.790861 48,18 C48.0044654,18.6796508 48.1842265,19.3466511 48.5219,19.9365 C47.4510939,20.5463419 46.5618925,21.4301935 45.9456,22.4973 C44.6887572,20.333925 44.684551,17.663652 45.934572,15.4963282 C47.184593,13.3290044 49.4980359,11.9954537 52,12 Z M26.3362,15.2051 C26.8114294,13.9649166 27.7631272,12.9664423 28.9791,12.4323 C30.220053,13.1892225 31.779947,13.1892225 33.0209,12.4323 C34.2368728,12.9664423 35.1885706,13.9649166 35.6638,15.2051 C33.0151156,17.5982863 28.9848844,17.5982863 26.3362,15.2051 Z M31,11 C29.8954305,11 29,10.1045695 29,9 C29,7.8954305 29.8954305,7 31,7 C32.1045695,7 33,7.8954305 33,9 C32.9987325,10.1040441 32.1040441,10.9987325 31,11 Z M31,3 C33.5019641,2.99545369 35.815407,4.32900438 37.065428,6.4963282 C38.315449,8.66365203 38.3112428,11.333925 37.0544,13.4973 C36.4381075,12.4301935 35.5489061,11.5463419 34.4781,10.9365 C34.8157735,10.3466511 34.9955346,9.67965078 35,9 C35,6.790861 33.209139,5 31,5 C28.790861,5 27,6.790861 27,9 C27.0044654,9.67965078 27.1842265,10.3466511 27.5219,10.9365 C26.4510939,11.5463419 25.5618925,12.4301935 24.9456,13.4973 C23.6887572,11.333925 23.684551,8.66365203 24.934572,6.4963282 C26.184593,4.32900438 28.4980359,2.99545369 31,3 Z M10,12 C12.5019641,11.9954537 14.815407,13.3290044 16.065428,15.4963282 C17.315449,17.663652 17.3112428,20.333925 16.0544,22.4973 C15.4381075,21.4301935 14.5489061,20.5463419 13.4781,19.9365 C13.8157735,19.3466511 13.9955346,18.6796508 14,18 C14,15.790861 12.209139,14 10,14 C7.790861,14 6,15.790861 6,18 C6.00446536,18.6796508 6.18422651,19.3466511 6.5219,19.9365 C5.45109395,20.5463419 4.56189251,21.4301935 3.9456,22.4973 C2.68875725,20.333925 2.68455101,17.663652 3.934572,15.4963282 C5.18459299,13.3290044 7.4980359,11.9954537 10,12 Z M8,18 C8,16.8954305 8.8954305,16 10,16 C11.1045695,16 12,16.8954305 12,18 C12,19.1045695 11.1045695,20 10,20 C8.89595593,19.9987325 8.00126747,19.1040441 8,18 Z M5.3362,24.2051 C5.81142937,22.9649166 6.76312716,21.9664423 7.9791,21.4323 C9.22005295,22.1892225 10.779947,22.1892225 12.0209,21.4323 C13.2368728,21.9664423 14.1885706,22.9649166 14.6638,24.2051 C12.0151156,26.5982863 7.98488439,26.5982863 5.3362,24.2051 Z M12,32 C14.5019641,31.9954537 16.815407,33.3290044 18.065428,35.4963282 C19.315449,37.663652 19.3112428,40.333925 18.0544,42.4973 C17.4381075,41.4301935 16.5489061,40.5463419 15.4781,39.9365 C15.8157735,39.3466511 15.9955346,38.6796508 16,38 C16,35.790861 14.209139,34 12,34 C9.790861,34 8,35.790861 8,38 C8.00446536,38.6796508 8.18422651,39.3466511 8.5219,39.9365 C7.45109395,40.5463419 6.56189251,41.4301935 5.9456,42.4973 C4.68875725,40.333925 4.68455101,37.663652 5.934572,35.4963282 C7.18459299,33.3290044 9.4980359,31.9954537 12,32 Z M10,38 C10,36.8954305 10.8954305,36 12,36 C13.1045695,36 14,36.8954305 14,38 C14,39.1045695 13.1045695,40 12,40 C10.8959559,39.9987325 10.0012675,39.1040441 10,38 Z M7.3362,44.2051 C7.81142937,42.9649166 8.76312716,41.9664423 9.9791,41.4323 C11.220053,42.1892225 12.779947,42.1892225 14.0209,41.4323 C15.2368728,41.9664423 16.1885706,42.9649166 16.6638,44.2051 C14.0151156,46.5982863 9.98488439,46.5982863 7.3362,44.2051 Z M45.3362,44.2051 C45.8114294,42.9649166 46.7631272,41.9664423 47.9791,41.4323 C49.220053,42.1892225 50.779947,42.1892225 52.0209,41.4323 C53.2368728,41.9664423 54.1885706,42.9649166 54.6638,44.2051 C52.0151156,46.5982863 47.9848844,46.5982863 45.3362,44.2051 Z M50,40 C48.8954305,40 48,39.1045695 48,38 C48,36.8954305 48.8954305,36 50,36 C51.1045695,36 52,36.8954305 52,38 C51.9987325,39.1040441 51.1040441,39.9987325 50,40 Z M50,32 C52.5019641,31.9954537 54.815407,33.3290044 56.065428,35.4963282 C57.315449,37.663652 57.3112428,40.333925 56.0544,42.4973 C55.4381075,41.4301935 54.5489061,40.5463419 53.4781,39.9365 C53.8157735,39.3466511 53.9955346,38.6796508 54,38 C54,35.790861 52.209139,34 50,34 C47.790861,34 46,35.790861 46,38 C46.0044654,38.6796508 46.1842265,39.3466511 46.5219,39.9365 C45.4510939,40.5463419 44.5618925,41.4301935 43.9456,42.4973 C42.6887572,40.333925 42.684551,37.663652 43.934572,35.4963282 C45.184593,33.3290044 47.4980359,31.9954537 50,32 Z M32.7881,36.04 C33.3893728,36.9468064 34.366471,37.5352464 35.4492,37.6426 C35.7901317,37.6834311 36.1332331,37.7034682 36.4766,37.7026 C38.1274206,37.649595 39.757833,37.3215591 41.3007,36.732 C41.1039493,37.4720418 41.0028921,38.2342557 41,39 C41,39.0116 41.0017,39.0227 41.0018,39.0343 C33.1176,39.3867 33,43.804 33,44 L33,52 C32.9491212,53.3410335 33.4595484,54.6425794 34.4084845,55.5915155 C35.3574206,56.5404516 36.6589665,57.0508788 38,57 C39.2836721,56.9770502 40.4949866,57.5928992 41.2328,58.6436 C38.4697,58.1804 33.6309,57.6336 31.0065,58.8646 C28.3834,57.6285 23.5273,58.1808 20.7637,58.644 C21.5027769,57.5928649 22.7152478,56.9769448 24,57 C25.3410335,57.0508788 26.6425794,56.5404516 27.5915155,55.5915155 C28.5404516,54.6425794 29.0508788,53.3410335 29,52 L29,44 C29,43.804 28.8824,39.3867 20.9982,39.0343 C20.9982,39.0227 21,39.0116 21,39 C20.9970651,38.2344231 20.8960083,37.47238 20.6993,36.7325 C22.2414983,37.3221599 23.8712756,37.6503663 25.5215,37.7036 C25.8638789,37.7042713 26.2059802,37.6840672 26.5459,37.6431 C27.6296558,37.5368616 28.6082078,36.9489593 29.2109,36.042 C30.0129647,34.7910115 29.9134369,33.1648391 28.9648,32.021 C28.4671576,31.429238 27.8740414,30.9248797 27.21,30.5288 C24.4424,28.7515 21.3691,27.165 18.1152,25.4854 C17.6992,25.2703 17.2693,25.0467 16.846,24.8275 C17.3909465,24.1873378 17.8436664,23.4740937 18.191,22.7085 C20.85,24.5814 24.7234,27 27,27 C27.6784456,27.0079654 28.3223896,26.7015188 28.7441,26.17 C29.9417,24.7122 29.7396,21.4022 29.3488,18.841 C30.4394442,19.0524667 31.5605558,19.0524667 32.6512,18.841 C32.2604,21.4022 32.0583,24.7122 33.2559,26.17 C33.6776104,26.7015188 34.3215544,27.0079654 35,27 C37.2766,27 41.1505,24.5812 43.809,22.7084 C44.1563451,23.4740181 44.6090636,24.1872938 45.154,24.8275 C44.7307,25.0467 44.3008,25.2703 43.8848,25.4854 C40.6309,27.1654 37.5576,28.7515 34.79,30.5288 C34.1271703,30.924003 33.5350478,31.4272006 33.0381,32.0176 C32.0875961,33.160848 31.9864745,34.7878538 32.7881,36.04 Z" id="Shape" fill="#ffffff" data-original="#000000" style="" class=""/></g></g></g></svg>
