<?xml version="1.0"?>
<svg xmlns="http://www.w3.org/2000/svg" xmlns:xlink="http://www.w3.org/1999/xlink" xmlns:svgjs="http://svgjs.com/svgjs" version="1.1" width="512" height="512" x="0" y="0" viewBox="0 0 512 512" style="enable-background:new 0 0 512 512" xml:space="preserve" class=""><g><g xmlns="http://www.w3.org/2000/svg"><g><path d="m511.808 227.566c-.059-16.939-13.611-31.501-31.828-31.501l-.296-.002c-1.273-.021-2.415-.936-2.777-2.225-5.013-17.873-12.186-35.056-21.353-51.175-.772-1.358-.602-3.086.509-4.185.006-.006.013-.013.019-.019 5.859-5.781 9.093-13.59 9.107-21.986.013-8.496-3.407-16.771-9.383-22.706l-38.974-38.703c0-.001 0-.001 0-.001-12.289-12.202-32.457-12.548-44.696.039-.178.184-.359.361-.533.524-.82.77-2.183.863-3.313.229-16.271-9.143-33.654-16.271-51.666-21.19-1.298-.354-2.225-1.493-2.254-2.77l-.004-.344c-.115-17.42-14.35-31.551-31.759-31.551-.037 0-.076 0-.113 0l-55.087.193c-8.461.029-16.388 3.368-22.32 9.402-5.932 6.035-9.136 14.019-9.021 22.4l-.001.316c-.02 1.275-.938 2.42-2.231 2.783-17.98 5.044-35.314 12.296-51.521 21.553-1.124.64-2.485.557-3.313-.209-.186-.171-.368-.349-.541-.522-5.81-5.891-13.616-9.143-21.982-9.157-.018 0-.035 0-.053 0-8.444 0-16.7 3.438-22.656 9.435l-38.703 38.975c-12.111 12.196-12.502 32.496.038 44.694.05.1 1.979 1.664.678 3.984-9.106 16.232-16.209 33.569-21.112 51.528-.338 1.237-1.481 2.259-3.115 2.259-17.459.116-31.613 14.414-31.552 31.873l.192 54.85c.061 17.431 14.166 31.576 31.714 31.576h.115c.1.035 2.393-.196 3.075 2.235 5.038 17.957 12.278 35.272 21.521 51.467 1.296 2.272-.651 3.806-.702 3.906-12.584 12.408-11.775 32.722.279 44.691l38.974 38.702c12.27 12.183 32.436 12.564 44.698-.041 1.054-1.088 2.258-1.641 3.84-.754 16.273 9.145 33.659 16.275 51.675 21.193 1.295.354 2.22 1.491 2.249 2.764.084.423-.842 12.579 9.299 22.686 5.968 5.946 13.884 9.217 22.304 9.217h.114l54.768-.192c17.432-.061 31.705-14.292 31.817-31.806l.002-.307c.02-1.28.942-2.43 2.245-2.796 17.97-5.042 35.296-12.29 51.497-21.541 1.132-.646 2.501-.561 3.33.206 14.5 13.427 33.256 12.294 45.226.24l38.702-38.975c12.134-12.218 12.479-32.518-.036-44.692l-.019-.019c-1.106-1.077-1.337-2.757-.583-4.103 9.075-16.206 16.142-33.466 21.038-51.4.353-1.293 1.489-2.217 2.783-2.246.336-.069 12.851.854 23.036-9.728 5.824-6.051 8.873-14.253 8.844-22.652zm-32.051 71.807c-7.857.179-14.804 5.645-16.892 13.291-5.131 18.797-11.843 35.165-21.866 51.875-3.282 5.473-1.165 11.461 5.442 18.351 6.285 6.554 6.123 17.055-.148 23.372l-38.702 38.974c-5.398 5.437-12.134 5.022-12.033 5.002-6.24-.01-9.382-2.922-12.359-5.681-5.671-5.249-14.093-6.144-20.958-2.224-15.135 8.643-31.322 15.413-48.111 20.125-7.647 2.146-13.072 9.142-13.19 17.001-.184 10.626-8.209 17.318-16.874 17.349l-54.77.192c-8.616-.047-16.432-6.326-16.668-17.241-.179-7.86-5.646-14.808-13.295-16.896-16.831-4.595-33.073-11.256-48.277-19.8-6.613-3.716-15.387-3.385-21.946 3.378-6.417 6.596-17.018 6.158-23.371-.15l-38.974-38.702c-5.959-5.917-7.296-16.139.19-23.877 5.545-5.725 6.652-14.571 2.691-21.512-8.635-15.129-15.4-31.307-20.106-48.082-2.04-7.271-8.701-13.185-17.602-13.185-9.174.066-16.713-7.383-16.745-16.629l-.192-54.85c-.032-9.214 7.437-16.759 16.612-16.82.013 0 .118-.001.131-.001 8.113-.043 15.266-5.515 17.394-13.307 4.581-16.778 11.217-32.976 19.725-48.142 3.829-6.827 3.051-15.903-3.303-22.076-6.509-6.331-6.124-17.055.148-23.371l38.703-38.975c3.159-3.181 7.536-5.004 12.012-5.004h.028c4.329.008 8.352 1.673 11.334 4.697.338.343.685.677 1.033.999 5.667 5.241 14.078 6.131 20.932 2.218 15.142-8.648 31.337-15.423 48.134-20.136 7.635-2.142 13.055-9.127 13.179-17.012l.002-.656c-.061-4.427 1.616-8.604 4.72-11.762 3.167-3.221 7.586-4.901 12.103-4.917l54.659-.189h.271c9.175 0 16.508 7.506 16.547 16.681.001.185.004.369.008.554.177 7.862 5.646 14.812 13.299 16.902 16.829 4.595 33.069 11.255 48.27 19.797 6.774 3.806 15.518 3.256 21.953-3.379 6.383-6.563 16.974-6.197 23.368.153v-.001l38.974 38.704c3.155 3.132 4.959 7.521 4.953 12.038-.007 4.361-1.656 8.387-4.642 11.332-1.371 1.353-2.607 2.819-3.703 4.389-3.278 4.699-3.437 10.914-.502 15.835 9.565 16.038 16.041 31.771 21.122 49.884 2.141 7.631 9.124 13.048 16.958 13.172 11.035.199 17.357 8.072 17.386 16.558l.191 55.001c.03 8.494-6.27 16.481-17.243 16.753z" fill="#ffffff" data-original="#000000" style="" class=""/><path d="m256.001 101.575c-85.15 0-154.425 69.274-154.425 154.425s69.275 154.425 154.425 154.425 154.425-69.274 154.425-154.425-69.275-154.425-154.425-154.425zm0 293.85c-76.879 0-139.425-62.546-139.425-139.425s62.546-139.425 139.425-139.425 139.425 62.546 139.425 139.425-62.546 139.425-139.425 139.425z" fill="#ffffff" data-original="#000000" style="" class=""/><path d="m342.081 178.409c-5.503-4.598-12.467-6.773-19.608-6.135-7.142.642-13.606 4.025-18.203 9.528l-79.886 95.639-27.338-28.131c-4.997-5.143-11.697-8.03-18.867-8.133-7.165-.101-13.95 2.593-19.091 7.591-5.142 4.997-8.03 11.697-8.132 18.866s2.593 13.949 7.59 19.09l48.097 49.492c5.024 5.169 12.041 8.134 19.249 8.134.332 0 .666-.006 1.011-.018 7.585-.286 14.727-3.792 19.591-9.618l98.981-118.496c9.488-11.359 7.965-28.321-3.394-37.809zm-8.119 28.195-98.982 118.496c-2.146 2.571-5.297 4.117-8.632 4.243-3.357.117-6.627-1.19-8.95-3.58l-48.096-49.492c-2.205-2.268-3.394-5.259-3.349-8.422s1.319-6.119 3.588-8.323c2.227-2.165 5.15-3.351 8.25-3.351.058 0 .116 0 .173.001 3.163.046 6.119 1.319 8.324 3.588l33.139 34.099c1.481 1.523 3.543 2.323 5.661 2.269 2.123-.08 4.112-1.057 5.474-2.688l85.221-102.025c2.028-2.428 4.88-3.921 8.031-4.203 3.153-.281 6.223.68 8.651 2.706 5.012 4.185 5.683 11.669 1.497 16.682z" fill="#ffffff" data-original="#000000" style="" class=""/><path d="m365.158 388.93c-30.644 25.194-69.41 39.069-109.157 39.069-94.841 0-172-77.158-172-171.999 0-39.744 13.873-78.508 39.064-109.15 2.63-3.199 2.169-7.926-1.031-10.557-3.2-2.63-7.925-2.168-10.556 1.031-27.392 33.321-42.477 75.467-42.477 118.676 0 103.111 83.888 186.999 187 186.999 43.213 0 85.363-15.088 118.684-42.483 3.2-2.63 3.661-7.356 1.03-10.556-2.63-3.199-7.358-3.662-10.557-1.03z" fill="#ffffff" data-original="#000000" style="" class=""/><path d="m256.001 69c-43.221 0-85.376 15.093-118.702 42.498-3.199 2.631-3.66 7.357-1.029 10.557 2.63 3.199 7.356 3.659 10.557 1.029 30.648-25.204 69.42-39.084 109.174-39.084 94.841 0 172 77.159 172 172 0 39.747-13.876 78.514-39.071 109.159-2.63 3.199-2.169 7.926 1.03 10.556 1.396 1.148 3.083 1.707 4.759 1.707 2.166 0 4.315-.934 5.798-2.737 27.396-33.323 42.483-75.472 42.483-118.685 0-103.112-83.887-187-186.999-187z" fill="#ffffff" data-original="#000000" style="" class=""/></g></g></g></svg>
